<?xml version="1.0" standalone="no"?>
<!DOCTYPE svg PUBLIC "-//W3C//DTD SVG 20010904//EN"
 "http://www.w3.org/TR/2001/REC-SVG-20010904/DTD/svg10.dtd">
<svg version="1.0" xmlns="http://www.w3.org/2000/svg"
 width="559.000000pt" height="559.000000pt" viewBox="0 0 559.000000 559.000000"
 preserveAspectRatio="xMidYMid meet">
<metadata>
Created by potrace 1.11, written by Peter Selinger 2001-2013
</metadata>
<g transform="translate(0.000000,559.000000) scale(0.100000,-0.100000)"
fill="#000000" stroke="none">
<path d="M2560 5280 l0 -160 310 0 310 0 0 160 0 160 -310 0 -310 0 0 -160z"/>
<path d="M2120 5210 l0 -90 180 0 180 0 0 90 0 90 -180 0 -180 0 0 -90z"/>
<path d="M3280 4965 l0 -215 -40 0 -40 0 0 155 0 155 -675 0 -675 0 0 -155 0
-155 -130 0 -130 0 0 -290 0 -290 550 0 550 0 0 -795 0 -795 370 0 370 0 0
795 0 795 260 0 260 0 0 290 0 290 -180 0 -180 0 0 215 0 215 -155 0 -155 0 0
-215z"/>
<path d="M3670 4870 l0 -60 70 0 70 0 0 60 0 60 -70 0 -70 0 0 -60z"/>
<path d="M1450 2525 l0 -1555 -215 0 -215 0 0 -215 0 -215 530 0 530 0 0 -190
0 -190 175 0 175 0 0 190 0 190 360 0 360 0 0 -190 0 -190 155 0 155 0 0 190
0 190 555 0 555 0 0 215 0 215 -555 0 -555 0 0 755 0 755 -155 0 -155 0 0
-755 0 -755 -275 0 -275 0 0 65 0 65 225 0 225 0 0 635 0 635 -225 0 -225 0 0
855 0 855 -575 0 -575 0 0 -1555z"/>
<path d="M3560 2580 l0 -1500 290 0 290 0 0 1500 0 1500 -290 0 -290 0 0
-1500z"/>
</g>
</svg>
